<?xml version="1.0" standalone="no"?>
<!DOCTYPE svg PUBLIC "-//W3C//DTD SVG 20010904//EN"
 "http://www.w3.org/TR/2001/REC-SVG-20010904/DTD/svg10.dtd">
<svg version="1.0" xmlns="http://www.w3.org/2000/svg"
 width="618.000000pt" height="609.000000pt" viewBox="0 0 618.000000 609.000000"
 preserveAspectRatio="xMidYMid meet">

<g transform="translate(0.000000,609.000000) scale(0.100000,-0.100000)"
fill="#000000" stroke="none">
<path d="M2602 6004 c-1111 -121 -2030 -850 -2372 -1882 -112 -339 -157 -686
-138 -1079 32 -693 319 -1343 808 -1833 457 -458 1037 -739 1700 -822 139 -17
610 -17 750 0 222 28 461 85 659 158 127 47 373 166 489 237 51 31 96 57 100
57 4 0 190 -183 414 -407 l408 -408 352 353 353 352 -402 402 -402 403 72 112
c249 381 394 806 438 1287 17 180 6 531 -21 711 -135 898 -678 1654 -1480
2059 -347 176 -679 271 -1065 306 -151 14 -514 11 -663 -6z m502 -1094 c416
-30 751 -174 1011 -435 118 -118 196 -225 270 -367 147 -282 205 -539 205
-903 0 -202 -16 -354 -54 -510 -26 -108 -84 -275 -94 -275 -4 0 -203 196 -442
435 l-435 435 -352 -352 -353 -353 457 -457 c251 -251 455 -459 453 -461 -3
-3 -32 -18 -65 -35 -136 -68 -330 -121 -514 -143 -155 -17 -468 -7 -596 21
-543 116 -948 462 -1139 972 -86 231 -119 432 -119 723 0 436 85 737 295 1051
256 383 685 620 1183 654 61 4 119 8 130 8 11 1 83 -3 159 -8z"/>
</g>
</svg>
